<?xml version="1.0" encoding="UTF-8"?>
<!-- Generator: Adobe Illustrator 15.1.0, SVG Export Plug-In . SVG Version: 6.00 Build 0)  -->
<!DOCTYPE svg PUBLIC "-//W3C//DTD SVG 1.1//EN" "http://www.w3.org/Graphics/SVG/1.1/DTD/svg11.dtd">
<svg version="1.1" id="Ebene_1" xmlns="http://www.w3.org/2000/svg" xmlns:xlink="http://www.w3.org/1999/xlink" x="0px" y="0px" width="372px" height="65.94775px" viewBox="0 0 372 65.94775" enable-background="new 0 0 372 65.94775" xml:space="preserve">
<g>
	<g>
		<path d="M7.45215,48.32373H1.61328v4.6709h4.05566c0.53027,0,0.80762,0.40234,0.80762,0.80664    c0,0.40234-0.27734,0.80664-0.80762,0.80664H1.61328v6.09277c0,0.53125-0.40381,0.78809-0.80664,0.78809    C0.40283,61.48877,0,61.23193,0,60.70068V47.51709c0-0.42676,0.38281-0.81055,0.80664-0.81055h6.64551    c0.57422,0,0.80664,0.40234,0.80664,0.81055C8.25879,47.91943,8.02637,48.32373,7.45215,48.32373z"/>
		<path d="M13.13818,61.48877h-0.21094c-1.89111,0-3.4209-1.48633-3.4209-3.39844v-3.65234    c0-1.89258,1.52979-3.41992,3.4209-3.41992h0.21094c1.88965,0,3.41943,1.52734,3.41943,3.41992v3.65234    C16.55762,60.00244,15.02783,61.48877,13.13818,61.48877z M14.94287,54.43799c0-0.99805-0.80664-1.80664-1.80469-1.80664h-0.21094    c-0.99951,0-1.80615,0.80859-1.80615,1.80664v3.65234c0,0.99609,0.80664,1.80176,1.82568,1.80176h0.19141    c0.99805,0,1.80469-0.80566,1.80469-1.80176V54.43799z"/>
		<path d="M24.71143,53.37451c-0.23389,0-0.46777-0.10449-0.6582-0.29785c-0.16992-0.16895-0.44629-0.44531-0.97656-0.44531    c-1.27441,0-1.42334,0.74316-1.42334,1.42188v6.60449c0,0.57422-0.40234,0.83105-0.80615,0.83105    c-0.40283,0-0.80664-0.25684-0.80664-0.83105v-8.83301c0-0.50879,0.42383-0.80664,0.82764-0.80664    c0.2749,0,0.55176,0.10645,0.7002,0.42676c0,0,0.42529-0.42676,1.52979-0.42676c0.82764,0,1.69824,0.29785,2.20703,1.04102    c0.12744,0.19238,0.19287,0.3623,0.19287,0.5498C25.49805,53.05811,25.13525,53.37451,24.71143,53.37451z"/>
		<path d="M31.37695,61.48877h-0.12646c-1.38184,0-2.95117-0.78809-3.6333-2.10547    c-0.06348-0.14551-0.10498-0.27441-0.10498-0.40234c0-0.48633,0.4043-0.78418,0.82813-0.78418    c0.25391,0,0.53174,0.08301,0.72168,0.36133c0.53125,0.69824,1.44434,1.33398,2.22949,1.33398h0.10791    c1.29443,0,2.01709-0.71875,2.03711-1.41992c0.06494-2.82422-5.52002-0.7207-5.52002-4.73438    c0-2.04004,2.14453-2.71973,3.48291-2.71973h0.08496c1.46436,0,2.44092,0.63867,2.77979,0.91309    c0.19287,0.15039,0.29785,0.36133,0.29785,0.61426c0,0.4082-0.31885,0.76563-0.7627,0.76563    c-0.14893,0-0.29785-0.04102-0.46777-0.12793c-0.44678-0.22949-0.91455-0.57422-1.86963-0.57422h-0.08496    c-1.18945,0-1.82715,0.53223-1.84717,1.15137c-0.08496,2.29199,5.521,0.44336,5.521,4.6709v0.08203    C35.05078,60.48877,33.16113,61.48877,31.37695,61.48877z"/>
		<path d="M41.65381,61.48877h-0.21387c-1.88965,0-3.41895-1.48633-3.41895-3.39844v-3.65234    c0-1.93359,1.55225-3.41992,3.41895-3.41992h0.21387c1.86719,0,3.4165,1.52734,3.4165,3.41992    c0,0.53125-0.40234,0.80664-0.80664,0.80664c-0.40234,0-0.78369-0.25586-0.80664-0.78711    c-0.06348-1.08301-0.80615-1.82617-1.80322-1.82617h-0.21387c-0.99658,0-1.80566,0.80859-1.80566,1.80664v3.65234    c0,0.99609,0.80908,1.80176,1.82715,1.80176h0.19238c0.99707,0,1.73975-0.80566,1.80322-1.80176    c0.02295-0.57227,0.4043-0.8291,0.80664-0.8291c0.4043,0,0.80664,0.25684,0.80664,0.8291    C45.07031,60.00244,43.54248,61.48877,41.65381,61.48877z"/>
		<path d="M54.92383,61.48877c-0.40381,0-0.80664-0.25684-0.80664-0.78809v-6.2627c0-1.25488-0.95557-1.80664-1.89063-1.80664    c-0.95557,0-1.93262,0.59668-1.93262,1.70117v6.36816c0,0.53125-0.40381,0.78809-0.80615,0.78809    c-0.4043,0-0.80664-0.25684-0.80664-0.78809v-13.3125c0-0.53125,0.40234-0.80664,0.80664-0.80664    c0.40234,0,0.80615,0.27539,0.80615,0.80664v4.26855c0.36182-0.4043,1.10449-0.63867,1.84717-0.63867h0.17041    c1.89063,0,3.41895,1.52734,3.41895,3.41992v6.2627C55.73047,61.23193,55.32666,61.48877,54.92383,61.48877z"/>
		<path d="M65.28467,61.48877c-0.36133,0-0.72119-0.19336-0.80615-0.61523c-0.40527,0.40332-1.08301,0.61523-1.82617,0.61523    h-0.19238c-1.82715,0-3.41797-1.04102-3.41797-3.39844v-6.26563c0-0.53125,0.40381-0.80664,0.80664-0.80664    c0.40381,0,0.80664,0.27539,0.80664,0.80664v6.26563c0,0.99609,0.80811,1.80176,1.80469,1.80176h0.19238    c1.01807,0,1.82617-0.80566,1.82617-1.80176v-6.26563c0-0.53125,0.40381-0.80664,0.80615-0.80664    c0.4043,0,0.80664,0.27539,0.80664,0.80664v8.87598C66.09131,61.2124,65.68896,61.48877,65.28467,61.48877z"/>
		<path d="M76.09229,61.48877c-0.40381,0-0.80762-0.25684-0.80762-0.78809v-6.2627c0-0.99805-0.80664-1.80664-1.82617-1.80664    h-0.18994c-0.99902,0-1.82715,0.78613-1.82715,1.80664v6.2627c0,0.53125-0.40283,0.78809-0.80664,0.78809    s-0.80664-0.25684-0.80664-0.78809v-8.87598c0-0.50879,0.40283-0.80664,0.82813-0.80664    c0.36133,0,0.72119,0.21191,0.80664,0.63867c0.40234-0.4043,1.08301-0.63867,1.82568-0.63867h0.19287    c1.80322,0,3.39648,1.08203,3.39648,3.41992v6.2627C76.87793,61.23193,76.49512,61.48877,76.09229,61.48877z"/>
		<path d="M83.98975,65.94775h-0.19287c-1.44287,0-3.14111-0.76465-3.58789-2.33691c-0.021-0.10645-0.04248-0.21191-0.04248-0.27539    c0-0.49023,0.4043-0.76563,0.82813-0.76563c0.31885,0,0.59521,0.15039,0.74414,0.55469    c0.25488,0.7002,1.01758,1.20898,2.05811,1.20898h0.19287c0.99658,0,1.80469-0.80664,1.80469-1.82715v-1.63281    c-0.36035,0.40332-1.10303,0.61523-1.84863,0.61523h-0.14893c-1.8667,0-3.43896-1.48633-3.43896-3.39844v-3.65234    c0-1.89258,1.57227-3.41992,3.43896-3.41992h0.19287c0.91309,0,1.5083,0.31641,1.82715,0.63867    c0.06104-0.42676,0.42383-0.63867,0.78418-0.63867c0.40234,0,0.80762,0.25684,0.80762,0.78418v10.7041    C87.40869,64.43994,85.87793,65.94775,83.98975,65.94775z M85.79443,54.31006c0-1.04004-0.84912-1.67871-1.80469-1.67871h-0.19287    c-0.99658,0-1.82422,0.78613-1.82422,1.80664v3.65234c0,1.01855,0.82764,1.80176,1.82422,1.80176h0.19287    c0.95557,0,1.80469-0.63574,1.80469-1.63086V54.31006z"/>
		<path d="M94.45703,61.48877h-0.12598c-1.38232,0-2.95166-0.78809-3.63184-2.10547    c-0.06543-0.14551-0.10645-0.27441-0.10645-0.40234c0-0.48633,0.40381-0.78418,0.82813-0.78418    c0.25635,0,0.53125,0.08301,0.72119,0.36133c0.53174,0.69824,1.44482,1.33398,2.22998,1.33398h0.10742    c1.2959,0,2.01758-0.71875,2.03711-1.41992c0.06543-2.82422-5.52002-0.7207-5.52002-4.73438    c0-2.04004,2.14502-2.71973,3.48291-2.71973h0.08545c1.46436,0,2.44092,0.63867,2.77979,0.91309    c0.19238,0.15039,0.29736,0.36133,0.29736,0.61426c0,0.4082-0.31738,0.76563-0.7627,0.76563    c-0.14844,0-0.29736-0.04102-0.46777-0.12793c-0.44629-0.22949-0.91406-0.57422-1.86963-0.57422h-0.08496    c-1.18945,0-1.82715,0.53223-1.84717,1.15137c-0.08496,2.29199,5.52148,0.44336,5.52148,4.6709v0.08203    C98.13135,60.48877,96.2417,61.48877,94.45703,61.48877z"/>
		<path d="M102.33447,48.6626c-0.40381,0-0.80664-0.2793-0.80664-0.80664v-0.46777c0-0.53125,0.40283-0.80664,0.80664-0.80664    c0.40283,0,0.80664,0.27539,0.80664,0.80664v0.46777C103.14111,48.3833,102.7373,48.6626,102.33447,48.6626z M102.33447,61.48877    c-0.40381,0-0.80664-0.25684-0.80664-0.78809v-8.87598c0-0.53125,0.40283-0.80664,0.80664-0.80664    c0.40283,0,0.80664,0.27539,0.80664,0.80664v8.87598C103.14111,61.23193,102.7373,61.48877,102.33447,61.48877z"/>
		<path d="M113.43848,61.48877c-0.40283,0-0.80664-0.25684-0.80664-0.78809v-6.2627c0-0.99805-0.80664-1.80664-1.82617-1.80664    h-0.19092c-0.99805,0-1.82617,0.78613-1.82617,1.80664v6.2627c0,0.53125-0.40381,0.78809-0.80664,0.78809    c-0.40381,0-0.80664-0.25684-0.80664-0.78809v-8.87598c0-0.50879,0.40283-0.80664,0.82666-0.80664    c0.36279,0,0.72314,0.21191,0.80664,0.63867c0.40381-0.4043,1.08447-0.63867,1.82715-0.63867h0.19287    c1.80322,0,3.39648,1.08203,3.39648,3.41992v6.2627C114.2251,61.23193,113.84229,61.48877,113.43848,61.48877z"/>
		<path d="M118.85205,48.6626c-0.40283,0-0.80664-0.2793-0.80664-0.80664v-0.46777c0-0.53125,0.40381-0.80664,0.80664-0.80664    c0.40381,0,0.80664,0.27539,0.80664,0.80664v0.46777C119.65869,48.3833,119.25586,48.6626,118.85205,48.6626z M118.85205,61.48877    c-0.40283,0-0.80664-0.25684-0.80664-0.78809v-8.87598c0-0.53125,0.40381-0.80664,0.80664-0.80664    c0.40381,0,0.80664,0.27539,0.80664,0.80664v8.87598C119.65869,61.23193,119.25586,61.48877,118.85205,61.48877z"/>
		<path d="M127.28223,61.48877c-1.55225,0-2.78271-1.2334-2.78271-2.7832v-6.00879h-0.74268    c-0.53174,0-0.80664-0.4043-0.80664-0.80664c0-0.4043,0.2749-0.80762,0.80664-0.80762h0.74268v-3.69434    c0-0.53125,0.4043-0.80664,0.80664-0.80664c0.4043,0,0.80664,0.27539,0.80664,0.80664v3.69434h1.14795    c0.53027,0,0.80664,0.40332,0.80664,0.80762c0,0.40234-0.27637,0.80664-0.80664,0.80664h-1.14795v5.98633    c0,0.74707,0.57422,1.16797,1.2334,1.20898c0.50879,0.04688,0.74268,0.4043,0.74268,0.80859    C128.08887,61.10693,127.85498,61.48877,127.28223,61.48877z"/>
		<path d="M132.18701,48.6626c-0.40381,0-0.80664-0.2793-0.80664-0.80664v-0.46777c0-0.53125,0.40283-0.80664,0.80664-0.80664    c0.40283,0,0.80664,0.27539,0.80664,0.80664v0.46777C132.99365,48.3833,132.58984,48.6626,132.18701,48.6626z M132.18701,61.48877    c-0.40381,0-0.80664-0.25684-0.80664-0.78809v-8.87598c0-0.53125,0.40283-0.80664,0.80664-0.80664    c0.40283,0,0.80664,0.27539,0.80664,0.80664v8.87598C132.99365,61.23193,132.58984,61.48877,132.18701,61.48877z"/>
		<path d="M143.98975,61.48877c-0.06348,0-0.12744,0-0.14893-0.02246c-0.74268-0.10645-1.1665-0.4043-1.44287-0.80859    c-0.6167,0.53223-1.42334,0.83105-2.29492,0.83105h-0.18994c-1.69824,0-3.41943-1.04102-3.41943-3.03906v-0.25293    c0-3.35547,4.84229-2.78223,5.37256-3.48438c0.06396-0.08203,0.06396-0.25488,0.06396-0.36133    c0-1.27441-0.78662-1.71973-1.71973-1.71973h-0.14893c-0.87012,0-1.31641,0.36328-1.7207,1.06348    c-0.16992,0.31738-0.44531,0.42285-0.72168,0.42285c-0.40381,0-0.80664-0.29785-0.80664-0.74316    c0-0.14648,0.02295-0.27539,0.08545-0.37988c0.68018-1.53125,2.05957-1.97656,3.16357-1.97656h0.14893    c1.88965,0,3.33301,1.46777,3.33301,3.26953v4.92773c0,0.40234,0.19238,0.63574,0.55273,0.7002    c0.48779,0.08691,0.68018,0.42578,0.68018,0.76465C144.77637,61.10693,144.49902,61.48877,143.98975,61.48877z     M141.93018,56.41357c-1.5708,0.37988-3.82324,0.37988-3.82324,1.82422v0.1709c0,0.91113,0.72412,1.4834,1.80615,1.4834h0.18994    c0.99902,0,1.82715-0.7832,1.82715-1.80176V56.41357z"/>
		<path d="M151.33838,61.48877c-1.55225,0-2.78271-1.2334-2.78271-2.7832v-6.00879h-0.74268    c-0.53174,0-0.80664-0.4043-0.80664-0.80664c0-0.4043,0.2749-0.80762,0.80664-0.80762h0.74268v-3.69434    c0-0.53125,0.4043-0.80664,0.80664-0.80664c0.40381,0,0.80664,0.27539,0.80664,0.80664v3.69434h1.14795    c0.53027,0,0.80664,0.40332,0.80664,0.80762c0,0.40234-0.27637,0.80664-0.80664,0.80664h-1.14795v5.98633    c0,0.74707,0.57275,1.16797,1.2334,1.20898c0.50879,0.04688,0.74268,0.4043,0.74268,0.80859    C152.14502,61.10693,151.91113,61.48877,151.33838,61.48877z"/>
		<path d="M156.24023,48.6626c-0.40234,0-0.80615-0.2793-0.80615-0.80664v-0.46777c0-0.53125,0.40381-0.80664,0.80615-0.80664    c0.4043,0,0.80664,0.27539,0.80664,0.80664v0.46777C157.04688,48.3833,156.64453,48.6626,156.24023,48.6626z M156.24023,61.48877    c-0.40234,0-0.80615-0.25684-0.80615-0.78809v-8.87598c0-0.53125,0.40381-0.80664,0.80615-0.80664    c0.4043,0,0.80664,0.27539,0.80664,0.80664v8.87598C157.04688,61.23193,156.64453,61.48877,156.24023,61.48877z"/>
		<path d="M167.89697,52.08154l-2.88721,8.875c-0.12793,0.3623-0.50928,0.53223-0.76563,0.53223h-0.18994    c-0.27539,0-0.65771-0.12891-0.78662-0.53223l-2.8877-8.875c-0.02002-0.10938-0.04102-0.21387-0.04102-0.2793    c0-0.4209,0.33887-0.78418,0.82764-0.78418c0.31738,0,0.6167,0.14844,0.74268,0.55078l2.22998,6.83984l2.22998-6.83984    c0.12744-0.40234,0.42383-0.55078,0.74268-0.55078c0.48779,0,0.84912,0.36328,0.84912,0.78418    C167.96094,51.9126,167.94092,51.99561,167.89697,52.08154z"/>
		<path d="M177.04883,57.00537h-4.62988v1.08496c0,0.99609,0.80664,1.80176,1.80615,1.80176h0.21143    c0.8291,0,1.38184-0.48438,1.65674-1.08105c0.14893-0.36133,0.42432-0.50879,0.70166-0.50879    c0.42383,0,0.82666,0.33984,0.82666,0.8291c0,0.125-0.02002,0.25195-0.08496,0.3584    c-0.50879,1.19043-1.65576,1.99902-3.1001,1.99902h-0.21143c-1.89111,0-3.41895-1.48633-3.41895-3.39844v-3.65234    c0-1.89258,1.52783-3.41992,3.41895-3.41992h0.21143c1.89063,0,3.41895,1.46777,3.41895,3.43945v1.74121    C177.85547,56.62451,177.49561,57.00537,177.04883,57.00537z M176.24219,54.45752c0-1.04004-0.85059-1.82617-1.7832-1.82617    h-0.2124c-0.99805,0-1.82764,0.78613-1.82764,1.80664v1.06055h3.82324V54.45752z"/>
		<path d="M195.22363,61.48877c-0.35938,0-0.7207-0.19336-0.78418-0.61523c-0.31934,0.31641-0.91406,0.61523-1.82813,0.61523    h-0.18945c-1.93164,0-3.44141-1.48633-3.44141-3.39844v-3.65234c0-1.89258,1.50977-3.41992,3.44141-3.41992h0.14941    c0.74121,0,1.48535,0.25684,1.84668,0.70215v-4.33203c0-0.53125,0.4043-0.80664,0.80566-0.80664    c0.4043,0,0.80762,0.27539,0.80762,0.80664v13.35742C196.03125,61.25439,195.62793,61.48877,195.22363,61.48877z     M194.41797,54.26904c0-0.99902-0.85059-1.6377-1.80664-1.6377h-0.18945c-1.02051,0-1.82813,0.80859-1.82813,1.80664v3.65234    c0,0.99609,0.80762,1.80176,1.80762,1.80176h0.20996c0.95605,0,1.80664-0.63574,1.80664-1.67676V54.26904z"/>
		<path d="M206.18164,57.00537h-4.62988v1.08496c0,0.99609,0.80469,1.80176,1.80469,1.80176h0.20996    c0.83105,0,1.38184-0.48438,1.6582-1.08105c0.14844-0.36133,0.4248-0.50879,0.70117-0.50879    c0.42285,0,0.82715,0.33984,0.82715,0.8291c0,0.125-0.02148,0.25195-0.08496,0.3584    c-0.50781,1.19043-1.65625,1.99902-3.10156,1.99902h-0.20996c-1.88965,0-3.4209-1.48633-3.4209-3.39844v-3.65234    c0-1.89258,1.53125-3.41992,3.4209-3.41992h0.20996c1.8916,0,3.41992,1.46777,3.41992,3.43945v1.74121    C206.98633,56.62451,206.62793,57.00537,206.18164,57.00537z M205.37305,54.45752c0-1.04004-0.85059-1.82617-1.7832-1.82617    h-0.21289c-0.99609,0-1.8252,0.78613-1.8252,1.80664v1.06055h3.82129V54.45752z"/>
		<path d="M214.94922,53.37451c-0.23438,0-0.46777-0.10449-0.65918-0.29785c-0.16797-0.16895-0.44629-0.44531-0.97559-0.44531    c-1.27344,0-1.42188,0.74316-1.42188,1.42188v6.60449c0,0.57422-0.4043,0.83105-0.80762,0.83105    c-0.4043,0-0.80859-0.25684-0.80859-0.83105v-8.83301c0-0.50879,0.42578-0.80664,0.8291-0.80664    c0.27441,0,0.55371,0.10645,0.70215,0.42676c0,0,0.42285-0.42676,1.52832-0.42676c0.82617,0,1.69824,0.29785,2.20605,1.04102    c0.12988,0.19238,0.19336,0.3623,0.19336,0.5498C215.73535,53.05811,215.37402,53.37451,214.94922,53.37451z"/>
		<path d="M230.74316,61.38232h-3.26855c-0.4248,0-0.80762-0.38379-0.80762-0.80664V47.51709    c0-0.42676,0.38281-0.81055,0.80762-0.81055h3.26855c2.27246,0,3.86426,1.6582,3.86426,3.86719v0.01953    c0,1.59473-0.74121,2.71777-1.65234,3.22656c0.88965,0.5127,1.82324,1.61719,1.82324,3.33691v0.19141    C234.77832,59.57666,232.97559,61.38232,230.74316,61.38232z M232.99512,50.57373c0-1.36133-0.91211-2.25-2.25195-2.25h-2.46289    v4.68945h2.46289c1.27637,0,2.25195-0.99512,2.25195-2.41992V50.57373z M233.16504,57.15674    c0-1.38086-1.12402-2.52637-2.42188-2.52637h-2.46289v5.13867h2.46289c1.33984,0,2.42188-1.08594,2.42188-2.4209V57.15674z"/>
		<path d="M244.33203,61.48877c-0.36133,0-0.71973-0.19336-0.80469-0.61523c-0.40723,0.40332-1.08496,0.61523-1.82617,0.61523    h-0.19434c-1.8252,0-3.41699-1.04102-3.41699-3.39844v-6.26563c0-0.53125,0.40332-0.80664,0.80762-0.80664    s0.80762,0.27539,0.80762,0.80664v6.26563c0,0.99609,0.80566,1.80176,1.80176,1.80176h0.19434    c1.01758,0,1.82617-0.80566,1.82617-1.80176v-6.26563c0-0.53125,0.40332-0.80664,0.80469-0.80664    c0.4043,0,0.80859,0.27539,0.80859,0.80664v8.87598C245.14063,61.2124,244.73633,61.48877,244.33203,61.48877z"/>
		<path d="M255.1416,61.48877c-0.4043,0-0.80859-0.25684-0.80859-0.78809v-6.2627c0-0.99805-0.80762-1.80664-1.8252-1.80664    h-0.19141c-1,0-1.82617,0.78613-1.82617,1.80664v6.2627c0,0.53125-0.4043,0.78809-0.80762,0.78809    c-0.40137,0-0.80566-0.25684-0.80566-0.78809v-8.87598c0-0.50879,0.4043-0.80664,0.82617-0.80664    c0.3623,0,0.72363,0.21191,0.80859,0.63867c0.40137-0.4043,1.08105-0.63867,1.8252-0.63867h0.19141    c1.80469,0,3.39648,1.08203,3.39648,3.41992v6.2627C255.9248,61.23193,255.54297,61.48877,255.1416,61.48877z"/>
		<path d="M265.54297,61.48877c-0.36133,0-0.72266-0.19336-0.78613-0.61523c-0.31934,0.31641-0.91211,0.61523-1.82617,0.61523    h-0.19141c-1.93164,0-3.43848-1.48633-3.43848-3.39844v-3.65234c0-1.89258,1.50684-3.41992,3.43848-3.41992h0.14941    c0.74414,0,1.48535,0.25684,1.84668,0.70215v-4.33203c0-0.53125,0.4043-0.80664,0.80762-0.80664    c0.4043,0,0.80566,0.27539,0.80566,0.80664v13.35742C266.34863,61.25439,265.94727,61.48877,265.54297,61.48877z     M264.73535,54.26904c0-0.99902-0.85059-1.6377-1.80469-1.6377h-0.19141c-1.01758,0-1.8252,0.80859-1.8252,1.80664v3.65234    c0,0.99609,0.80762,1.80176,1.80469,1.80176h0.21191c0.9541,0,1.80469-0.63574,1.80469-1.67676V54.26904z"/>
		<path d="M276.49805,57.00537h-4.62891v1.08496c0,0.99609,0.80762,1.80176,1.80664,1.80176h0.20996    c0.8291,0,1.38184-0.48438,1.65625-1.08105c0.15137-0.36133,0.4248-0.50879,0.70117-0.50879    c0.42578,0,0.8291,0.33984,0.8291,0.8291c0,0.125-0.02148,0.25195-0.08496,0.3584    c-0.50977,1.19043-1.6582,1.99902-3.10156,1.99902h-0.20996c-1.8916,0-3.41992-1.48633-3.41992-3.39844v-3.65234    c0-1.89258,1.52832-3.41992,3.41992-3.41992h0.20996c1.88965,0,3.4209,1.46777,3.4209,3.43945v1.74121    C277.30664,56.62451,276.94531,57.00537,276.49805,57.00537z M275.69336,54.45752c0-1.04004-0.85059-1.82617-1.7832-1.82617    h-0.21582c-0.99609,0-1.8252,0.78613-1.8252,1.80664v1.06055h3.82422V54.45752z"/>
		<path d="M283.92969,61.48877h-0.12793c-1.37891,0-2.9502-0.78809-3.63086-2.10547    c-0.06348-0.14551-0.10547-0.27441-0.10547-0.40234c0-0.48633,0.40332-0.78418,0.82617-0.78418    c0.25488,0,0.53125,0.08301,0.72266,0.36133c0.53223,0.69824,1.44336,1.33398,2.23047,1.33398h0.10547    c1.29785,0,2.01758-0.71875,2.03906-1.41992c0.06348-2.82422-5.52051-0.7207-5.52051-4.73438    c0-2.04004,2.14551-2.71973,3.48145-2.71973h0.08594c1.46387,0,2.44238,0.63867,2.78223,0.91309    c0.19141,0.15039,0.29785,0.36133,0.29785,0.61426c0,0.4082-0.31934,0.76563-0.76563,0.76563    c-0.14844,0-0.29785-0.04102-0.46777-0.12793c-0.44629-0.22949-0.91406-0.57422-1.86816-0.57422h-0.08496    c-1.19141,0-1.82617,0.53223-1.84766,1.15137c-0.08496,2.29199,5.52051,0.44336,5.52051,4.6709v0.08203    C287.60254,60.48877,285.71484,61.48877,283.92969,61.48877z"/>
		<path d="M295.35254,53.37451c-0.23438,0-0.46777-0.10449-0.65918-0.29785c-0.16797-0.16895-0.44727-0.44531-0.97559-0.44531    c-1.27344,0-1.42188,0.74316-1.42188,1.42188v6.60449c0,0.57422-0.4043,0.83105-0.80762,0.83105    c-0.4043,0-0.80859-0.25684-0.80859-0.83105v-8.83301c0-0.50879,0.42578-0.80664,0.8291-0.80664    c0.27441,0,0.55273,0.10645,0.70215,0.42676c0,0,0.42285-0.42676,1.52832-0.42676c0.82617,0,1.69824,0.29785,2.20508,1.04102    c0.13086,0.19238,0.19434,0.3623,0.19434,0.5498C296.13867,53.05811,295.77734,53.37451,295.35254,53.37451z"/>
		<path d="M304.7998,57.00537h-4.62695v1.08496c0,0.99609,0.80566,1.80176,1.80469,1.80176h0.20996    c0.83203,0,1.38184-0.48438,1.6582-1.08105c0.14941-0.36133,0.42285-0.50879,0.70215-0.50879    c0.42285,0,0.82617,0.33984,0.82617,0.8291c0,0.125-0.02148,0.25195-0.08496,0.3584    c-0.50781,1.19043-1.65527,1.99902-3.10156,1.99902h-0.20996c-1.88965,0-3.41992-1.48633-3.41992-3.39844v-3.65234    c0-1.89258,1.53027-3.41992,3.41992-3.41992h0.20996c1.89258,0,3.4209,1.46777,3.4209,3.43945v1.74121    C305.6084,56.62451,305.24902,57.00537,304.7998,57.00537z M303.99512,54.45752c0-1.04004-0.85059-1.82617-1.7832-1.82617    h-0.21289c-0.99707,0-1.82617,0.78613-1.82617,1.80664v1.06055h3.82227V54.45752z"/>
		<path d="M312.50977,65.94775h-0.19336c-1.44336,0-3.1416-0.76465-3.58789-2.33691    c-0.02148-0.10645-0.04297-0.21191-0.04297-0.27539c0-0.49023,0.4043-0.76563,0.8291-0.76563    c0.31641,0,0.5957,0.15039,0.74414,0.55469c0.25586,0.7002,1.01855,1.20898,2.05762,1.20898h0.19336    c0.99707,0,1.80273-0.80664,1.80273-1.82715v-1.63281c-0.35938,0.40332-1.10352,0.61523-1.84766,0.61523h-0.14844    c-1.86816,0-3.43945-1.48633-3.43945-3.39844v-3.65234c0-1.89258,1.57129-3.41992,3.43945-3.41992h0.19336    c0.91211,0,1.50684,0.31641,1.82617,0.63867c0.06152-0.42676,0.42285-0.63867,0.78418-0.63867    c0.4043,0,0.80762,0.25684,0.80762,0.78418v10.7041C315.92773,64.43994,314.39746,65.94775,312.50977,65.94775z     M314.3125,54.31006c0-1.04004-0.84863-1.67871-1.80273-1.67871h-0.19336c-0.99707,0-1.82324,0.78613-1.82324,1.80664v3.65234    c0,1.01855,0.82617,1.80176,1.82324,1.80176h0.19336c0.9541,0,1.80273-0.63574,1.80273-1.63086V54.31006z"/>
		<path d="M320.76758,48.6626c-0.4043,0-0.80762-0.2793-0.80762-0.80664v-0.46777c0-0.53125,0.40332-0.80664,0.80762-0.80664    s0.80566,0.27539,0.80566,0.80664v0.46777C321.57324,48.3833,321.17188,48.6626,320.76758,48.6626z M320.76758,61.48877    c-0.4043,0-0.80762-0.25684-0.80762-0.78809v-8.87598c0-0.53125,0.40332-0.80664,0.80762-0.80664s0.80566,0.27539,0.80566,0.80664    v8.87598C321.57324,61.23193,321.17188,61.48877,320.76758,61.48877z"/>
		<path d="M331.61621,57.00537h-4.62988v1.08496c0,0.99609,0.80859,1.80176,1.80762,1.80176h0.20996    c0.8291,0,1.38184-0.48438,1.6582-1.08105c0.14941-0.36133,0.42285-0.50879,0.70215-0.50879    c0.42188,0,0.82617,0.33984,0.82617,0.8291c0,0.125-0.02148,0.25195-0.08496,0.3584    c-0.51074,1.19043-1.65625,1.99902-3.10156,1.99902h-0.20996c-1.89258,0-3.4209-1.48633-3.4209-3.39844v-3.65234    c0-1.89258,1.52832-3.41992,3.4209-3.41992h0.20996c1.89258,0,3.41992,1.46777,3.41992,3.43945v1.74121    C332.42383,56.62451,332.0625,57.00537,331.61621,57.00537z M330.81152,54.45752c0-1.04004-0.85059-1.82617-1.78418-1.82617    h-0.21191c-1,0-1.8291,0.78613-1.8291,1.80664v1.06055h3.8252V54.45752z"/>
		<path d="M340.38672,53.37451c-0.2334,0-0.46777-0.10449-0.65918-0.29785c-0.16992-0.16895-0.44629-0.44531-0.97559-0.44531    c-1.27539,0-1.42383,0.74316-1.42383,1.42188v6.60449c0,0.57422-0.40137,0.83105-0.80566,0.83105    s-0.80762-0.25684-0.80762-0.83105v-8.83301c0-0.50879,0.4248-0.80664,0.8291-0.80664c0.27344,0,0.5498,0.10645,0.69922,0.42676    c0,0,0.4248-0.42676,1.53027-0.42676c0.82617,0,1.69824,0.29785,2.20605,1.04102c0.12793,0.19238,0.19141,0.3623,0.19141,0.5498    C341.1709,53.05811,340.80957,53.37451,340.38672,53.37451z"/>
		<path d="M349.87695,61.48877c-0.36133,0-0.72266-0.19336-0.80762-0.61523c-0.4043,0.40332-1.08398,0.61523-1.82617,0.61523    h-0.19141c-1.82813,0-3.41699-1.04102-3.41699-3.39844v-6.26563c0-0.53125,0.40332-0.80664,0.80469-0.80664    c0.4043,0,0.80859,0.27539,0.80859,0.80664v6.26563c0,0.99609,0.80469,1.80176,1.80371,1.80176h0.19141    c1.01855,0,1.82617-0.80566,1.82617-1.80176v-6.26563c0-0.53125,0.4043-0.80664,0.80762-0.80664    c0.4043,0,0.80566,0.27539,0.80566,0.80664v8.87598C350.68262,61.2124,350.28125,61.48877,349.87695,61.48877z"/>
		<path d="M360.68359,61.48877c-0.4043,0-0.80762-0.25684-0.80762-0.78809v-6.2627c0-0.99805-0.80566-1.80664-1.82617-1.80664    h-0.19141c-0.99707,0-1.82617,0.78613-1.82617,1.80664v6.2627c0,0.53125-0.40332,0.78809-0.80469,0.78809    c-0.4043,0-0.80859-0.25684-0.80859-0.78809v-8.87598c0-0.50879,0.4043-0.80664,0.82715-0.80664    c0.36426,0,0.72266,0.21191,0.80762,0.63867c0.4043-0.4043,1.08398-0.63867,1.82617-0.63867h0.19336    c1.80273,0,3.39648,1.08203,3.39648,3.41992v6.2627C361.46973,61.23193,361.08789,61.48877,360.68359,61.48877z"/>
		<path d="M368.58203,65.94775h-0.19434c-1.44238,0-3.14063-0.76465-3.58789-2.33691    c-0.02051-0.10645-0.04199-0.21191-0.04199-0.27539c0-0.49023,0.4043-0.76563,0.8291-0.76563    c0.31934,0,0.5957,0.15039,0.74414,0.55469c0.25488,0.7002,1.01758,1.20898,2.05664,1.20898h0.19434    c0.99707,0,1.80176-0.80664,1.80176-1.82715v-1.63281c-0.3584,0.40332-1.10254,0.61523-1.84668,0.61523h-0.14941    c-1.86816,0-3.43848-1.48633-3.43848-3.39844v-3.65234c0-1.89258,1.57031-3.41992,3.43848-3.41992h0.19434    c0.91211,0,1.50684,0.31641,1.82617,0.63867c0.06055-0.42676,0.4248-0.63867,0.78418-0.63867    c0.40332,0,0.80762,0.25684,0.80762,0.78418v10.7041C372,64.43994,370.46875,65.94775,368.58203,65.94775z M370.38379,54.31006    c0-1.04004-0.84766-1.67871-1.80176-1.67871h-0.19434c-0.99609,0-1.82227,0.78613-1.82227,1.80664v3.65234    c0,1.01855,0.82617,1.80176,1.82227,1.80176h0.19434c0.9541,0,1.80176-0.63574,1.80176-1.63086V54.31006z"/>
	</g>
	<g>
		<path fill="#707173" d="M9.61133,29.50342H9.19141c-4.41406,0-8.19629-2.98486-8.19629-8.15381    c0-1.34619,1.00879-2.01758,2.01758-2.01758c1.00977,0,2.01709,0.67139,2.01709,2.01758    c0,2.69189,1.76611,4.20313,4.16162,4.20313h0.41992c2.47998,0,4.33105-1.34619,4.33105-3.82178    c0-5.88574-12.69482-5.92676-12.69482-13.53467V7.4375C1.24756,2.8999,5.4082,0,9.23291,0h0.37842    c4.03613,0,7.94385,2.14111,7.94385,6.43164v0.24854c0,1.13477-0.79688,1.89209-1.93213,1.89209    c-1.17871,0-1.85107-0.71191-2.10352-1.84668c-0.50342-2.27002-1.68213-2.7334-3.9082-2.7334H9.23291    c-1.84863,0-3.95068,1.17725-3.95068,3.23535v0.83984c0,4.03857,12.69287,4.96191,12.69287,13.66357    C17.9751,26.47607,14.31836,29.50342,9.61133,29.50342z"/>
		<path fill="#707173" d="M35.15479,4.24561H31.1626v23.28271c0,1.34619-1.00977,1.9751-2.01709,1.9751    c-1.00977,0-2.01709-0.62891-2.01709-1.9751V4.24561h-3.99316c-1.34473,0-2.01709-1.01123-2.01709-1.97559    c0-1.01025,0.67236-2.01758,2.01709-2.01758h12.01953c1.34619,0,2.01709,1.00732,2.01709,2.01758    C37.17188,3.23438,36.50098,4.24561,35.15479,4.24561z"/>
		<path fill="#707173" d="M53.22852,16.59863l4.7915,10.04736c0.16748,0.33496,0.2085,0.62988,0.2085,0.88232    c0,1.13525-0.83838,1.9751-2.14307,1.9751c-0.67139,0-1.34473-0.29395-1.72217-1.09277l-5.42188-11.43066h-3.4043v10.54834    c0,1.34619-0.96875,1.9751-1.9751,1.9751c-1.05225,0-2.06104-0.62891-2.06104-1.9751V2.27002    c0-1.05273,0.96777-2.01758,2.02002-2.01758h6.84912c4.53906,0,8.19629,3.65723,8.19629,8.19629V8.8252    C58.56641,12.44092,56.42139,15.50928,53.22852,16.59863z M54.53076,8.44873c0-2.35596-1.72217-4.20313-4.03613-4.20313h-4.95752    v8.74268h5.00146c2.31104,0,3.99219-1.85107,3.99219-4.16309V8.44873z"/>
		<path fill="#707173" d="M72.38379,29.50342H71.9624c-4.49561,0-8.19482-3.4458-8.19482-8.02637V8.02637    C63.76758,3.48682,67.4668,0,72.00635,0h0.37744c4.5376,0,8.19482,3.48682,8.19482,8.02637v13.45068    C80.57861,26.05762,76.92139,29.50342,72.38379,29.50342z M76.54541,8.02637c0-2.35205-1.85107-4.03418-4.16162-4.03418H71.9624    c-2.31104,0-4.15918,1.72314-4.15918,4.03418v13.45068c0,2.35352,1.84814,4.07568,4.15918,4.07568h0.42139    c2.31055,0,4.16162-1.72217,4.16162-4.07568V8.02637z"/>
		<path fill="#707173" d="M105.97021,29.50342c-1.00879,0-2.01709-0.62891-2.01709-1.9751V9.70752l-4.53955,10.50684    c-0.37744,0.84131-1.26074,1.2627-2.14355,1.2627c-0.84082,0-1.68066-0.42139-2.05957-1.2627L90.50391,9.70752v17.8208    c0,1.34619-1.00879,1.9751-2.01758,1.9751c-1.0083,0-2.01807-0.62891-2.01807-1.9751V2.01709    C86.46826,0.96484,87.43701,0,88.48633,0h0.50391c1.05127,0,1.72217,0.37744,2.05957,1.17627l6.22021,13.87061l6.13574-13.87061    C103.78418,0.29395,104.3291,0,105.4668,0h0.50342c1.05127,0,2.01563,0.96484,2.01563,2.01709v25.51123    C107.98584,28.87451,106.97998,29.50342,105.97021,29.50342z"/>
	</g>
	<g>
		<path fill="#86AA11" d="M160.13135,14.37549c0,1.00586-0.62988,2.01611-1.97607,2.01611h-13.84912    c-1.34619,0-2.01709-1.01025-2.01709-2.01611c0-1.01514,0.6709-2.021,2.01709-2.021h13.84912    C159.50146,12.35449,160.13135,13.36035,160.13135,14.37549z"/>
		<path fill="#86AA11" d="M160.13135,27.36621c0,1.00635-0.62988,2.01758-1.97607,2.01758h-13.84912    c-1.34619,0-2.01709-1.01123-2.01709-2.01758c0-1.00977,0.6709-2.021,2.01709-2.021h13.84912    C159.50146,25.34521,160.13135,26.35645,160.13135,27.36621z"/>
		<path fill="#86AA11" d="M225.97852,2.02148c0,1.00586-0.63574,2.01563-1.98047,2.01563h-13.84668    c-1.34668,0-2.0166-1.00977-2.0166-2.01563c0-1.01123,0.66992-2.02148,2.0166-2.02148h13.84668    C225.34277,0,225.97852,1.01025,225.97852,2.02148z"/>
		<path fill="#86AA11" d="M225.97852,14.37549c0,1.00586-0.63574,2.01611-1.98047,2.01611h-13.84668    c-1.34668,0-2.0166-1.01025-2.0166-2.01611c0-1.01514,0.66992-2.021,2.0166-2.021h13.84668    C225.34277,12.35449,225.97852,13.36035,225.97852,14.37549z"/>
		<path fill="#86AA11" d="M223.99805,25.34521l-34.29688,0.03076L200.33203,3.4458c0.20996-0.45996,0.37988-0.92334,0.37988-1.38721    c0-1.13477-0.7998-2.05859-2.3125-2.05859h-64.40625c-2.83447,0-4.0625,1.29297-4.0625,4.1167v15.63818l-9.95703-18.11475    c-0.63281-1.46973-1.63867-1.46973-2.14355-1.46973h-0.46387c-1.34473,0-2.14209,0.96875-2.14209,2.10352v25.42725    c0,1.34229,1.0498,1.97217,2.05859,1.97217s1.97607-0.62988,1.97607-1.97217V9.88135l9.9585,18.11475    c0.67236,1.55225,1.72217,1.67725,2.26953,1.67725h0.46094c1.13477,0,2.01709-0.92383,2.01709-1.97217V3.99219h36.65088v23.2876    c0,1.34229,1.01025,1.9707,2.01611,1.9707c1.01123,0,2.01709-0.62842,2.01709-1.9707V3.99219h20.80811l-10.67432,22.01367    c-0.16992,0.33887-0.25244,0.6748-0.25244,1.05078c0,1.17627,0.84033,2.31104,2.22852,2.31104l37.23926,0.01611    c1.34473,0,1.98047-1.01123,1.98047-2.01758C225.97852,26.35645,225.34277,25.34521,223.99805,25.34521z"/>
	</g>
</g>
</svg>